<mxfile host="app.diagrams.net" modified="2024-03-13T08:50:39.528Z" agent="Mozilla/5.0 (Windows NT 10.0; Win64; x64) AppleWebKit/537.36 (KHTML, like Gecko) Chrome/122.0.0.0 Safari/537.36" version="24.0.5" etag="qwZ5_Ar7ZX0kMe9QqTz8" type="github">
  <diagram name="Page-1" id="9i1KLzGGvkilT2TkHboX">
    <mxGraphModel>
      <root>
        <mxCell id="0" />
        <mxCell id="1" parent="0" />
      </root>
    </mxGraphModel>
  </diagram>
</mxfile>
